<svg width="20" height="20" viewBox="0 0 20 20" fill="none" xmlns="http://www.w3.org/2000/svg">
<path d="M7.5 15V5.29616C7.5 4.89488 7.5 4.69424 7.573 4.53151C7.63735 4.38806 7.74097 4.26574 7.87189 4.17868C8.0204 4.07992 8.21831 4.04694 8.61413 3.98097L15.9475 2.75875C16.4816 2.66972 16.7487 2.62521 16.9568 2.70252C17.1395 2.77036 17.2926 2.90006 17.3895 3.06907C17.5 3.26167 17.5 3.53243 17.5 4.07394V13.3333M7.5 15C7.5 16.3807 6.38071 17.5 5 17.5C3.61929 17.5 2.5 16.3807 2.5 15C2.5 13.6193 3.61929 12.5 5 12.5C6.38071 12.5 7.5 13.6193 7.5 15ZM17.5 13.3333C17.5 14.714 16.3807 15.8333 15 15.8333C13.6193 15.8333 12.5 14.714 12.5 13.3333C12.5 11.9526 13.6193 10.8333 15 10.8333C16.3807 10.8333 17.5 11.9526 17.5 13.3333Z" stroke="#0C111D" stroke-width="1.66667" stroke-linecap="round" stroke-linejoin="round"/>
</svg>
