<svg width="20" height="20" viewBox="0 0 20 20" fill="none" xmlns="http://www.w3.org/2000/svg">
<path d="M18.3337 7.44289C18.3337 6.93804 18.3337 6.68562 18.2338 6.56873C18.1472 6.46731 18.0173 6.41349 17.8843 6.42395C17.7311 6.43602 17.5526 6.61451 17.1956 6.97149L14.167 10.0001L17.1956 13.0287C17.5526 13.3857 17.7311 13.5641 17.8843 13.5762C18.0173 13.5867 18.1472 13.5328 18.2338 13.4314C18.3337 13.3145 18.3337 13.0621 18.3337 12.5573V7.44289Z" stroke="#667085" stroke-width="1.66667" stroke-linecap="round" stroke-linejoin="round"/>
<path d="M1.66699 8.16675C1.66699 6.76662 1.66699 6.06655 1.93948 5.53177C2.17916 5.06137 2.56161 4.67892 3.03202 4.43923C3.5668 4.16675 4.26686 4.16675 5.66699 4.16675H10.167C11.5671 4.16675 12.2672 4.16675 12.802 4.43923C13.2724 4.67892 13.6548 5.06137 13.8945 5.53177C14.167 6.06655 14.167 6.76662 14.167 8.16675V11.8334C14.167 13.2335 14.167 13.9336 13.8945 14.4684C13.6548 14.9388 13.2724 15.3212 12.802 15.5609C12.2672 15.8334 11.5671 15.8334 10.167 15.8334H5.66699C4.26686 15.8334 3.5668 15.8334 3.03202 15.5609C2.56161 15.3212 2.17916 14.9388 1.93948 14.4684C1.66699 13.9336 1.66699 13.2335 1.66699 11.8334V8.16675Z" stroke="#667085" stroke-width="1.66667" stroke-linecap="round" stroke-linejoin="round"/>
</svg>
